<?xml version="1.0" encoding="UTF-8" standalone="no"?>
<svg
   viewBox="0 0 18 18"
   version="1.1"
   id="svg6"
   sodipodi:docname="mail_on.svg"
   inkscape:version="1.1.2 (0a00cf5339, 2022-02-04)"
   inkscape:export-filename="/home/easifem/.config/awesome/themes/powerarrow-dark/icons-2/mail_on.png"
   inkscape:export-xdpi="96"
   inkscape:export-ydpi="96"
   width="18"
   height="18"
   xmlns:inkscape="http://www.inkscape.org/namespaces/inkscape"
   xmlns:sodipodi="http://sodipodi.sourceforge.net/DTD/sodipodi-0.dtd"
   xmlns="http://www.w3.org/2000/svg"
   xmlns:svg="http://www.w3.org/2000/svg">
  <sodipodi:namedview
     id="namedview8"
     pagecolor="#505050"
     bordercolor="#eeeeee"
     borderopacity="1"
     inkscape:pageshadow="0"
     inkscape:pageopacity="0"
     inkscape:pagecheckerboard="0"
     showgrid="false"
     inkscape:zoom="5.0965909"
     inkscape:cx="-15.500557"
     inkscape:cy="-11.968785"
     inkscape:window-width="1920"
     inkscape:window-height="1047"
     inkscape:window-x="0"
     inkscape:window-y="17"
     inkscape:window-maximized="1"
     inkscape:current-layer="svg6" />
  <defs
     id="defs3051">
    <style
       type="text/css"
       id="current-color-scheme">
      .ColorScheme-Text {
        color:#eff0f1;
      }
      </style>
  </defs>
  <g
     id="g862"
     inkscape:export-filename="/home/easifem/.config/awesome/themes/powerarrow-dark/icons-2/main_on.png"
     inkscape:export-xdpi="96"
     inkscape:export-ydpi="96"
     transform="matrix(0.77777778,0,0,0.77777778,0.33981284,0.2039862)">
    <path
       style="fill:#80e5ff;fill-opacity:1;stroke:none"
       d="M 9,3 V 4 8 H 7.109375 5.9550781 L 2,14.849609 V 16.310547 19 h 4 10 4 V 16.310547 14.849609 L 16.044922,8 H 16 13 V 4 3 Z m 1,1 h 2 v 7 h 1 V 9 h 2.46875 l 3.464844,6 H 16 l -1,2 H 7 L 6,15 H 3.0664062 L 6.53125,9 H 9 v 2 h 1 z M 6.7578125,10.34375 6.0507812,11.050781 11,16 15.949219,11.050781 15.242188,10.34375 11,14.585938 Z"
       class="ColorScheme-Text"
       id="path4" />
  </g>
</svg>
