<?xml version="1.0" encoding="UTF-8" standalone="no"?>
<svg
   viewBox="0 0 18 18"
   version="1.1"
   id="svg21"
   sodipodi:docname="vol_mute.svg"
   width="18"
   height="18"
   inkscape:version="1.1.2 (0a00cf5339, 2022-02-04)"
   inkscape:export-filename="/home/easifem/.config/awesome/themes/powerarrow-dark/icons-2/vol_mute.png"
   inkscape:export-xdpi="96"
   inkscape:export-ydpi="96"
   xmlns:inkscape="http://www.inkscape.org/namespaces/inkscape"
   xmlns:sodipodi="http://sodipodi.sourceforge.net/DTD/sodipodi-0.dtd"
   xmlns="http://www.w3.org/2000/svg"
   xmlns:svg="http://www.w3.org/2000/svg">
  <defs
     id="defs25" />
  <sodipodi:namedview
     id="namedview23"
     pagecolor="#505050"
     bordercolor="#eeeeee"
     borderopacity="1"
     inkscape:pageshadow="0"
     inkscape:pageopacity="0"
     inkscape:pagecheckerboard="0"
     showgrid="false"
     inkscape:zoom="28.03125"
     inkscape:cx="3.8885173"
     inkscape:cy="9.9175028"
     inkscape:window-width="1920"
     inkscape:window-height="1047"
     inkscape:window-x="0"
     inkscape:window-y="17"
     inkscape:window-maximized="1"
     inkscape:current-layer="svg21" />
  <style
     id="current-color-scheme"
     type="text/css">
        .ColorScheme-Text {
            color:#eff0f1;
        }
        .ColorScheme-NegativeText {
            color:#da4453;
        }
    </style>
  <path
     d="M 4.3333335,6.6849019 V 11.333334 L 9.0000003,16 h 1.1666667 v -3.48177 z"
     id="path3"
     style="color:#eff0f1;fill:#87cdde;stroke-width:1.16667" />
  <path
     d="M 2.0000001,6.6666669 V 11.333334 H 3.1666668 V 6.6666669 Z"
     id="path5"
     style="color:#eff0f1;fill:#87cdde;stroke-width:1.16667" />
  <path
     d="M 9.0000003,2.0000001 6.6780605,4.3219398 10.166667,7.8014322 V 2.0000001 Z"
     id="path7"
     style="color:#eff0f1;fill:#87cdde;stroke-width:1.16667" />
  <path
     d="M 2,2.8249582 2.8249582,2 16,15.14486 15.17504,15.999998 Z"
     class="ColorScheme-NegativeText"
     fill="currentColor"
     id="path11"
     style="stroke-width:1.16667" />
  <g
     class="ColorScheme-Text"
     fill="currentColor"
     id="g19"
     transform="matrix(1.1666667,0,0,1.1666667,-0.33333333,-0.33333333)"
     style="fill:#87cdde">
    <path
       d="m 10.271484,12.392578 a 5,5 0 0 1 -0.492187,0.279297 l 0.166015,0.998047 a 6,6 0 0 0 1.050782,-0.552734 z"
       opacity="0.35"
       id="path13"
       style="fill:#87cdde" />
    <path
       d="M 10.128906,4.615234 9.798828,5.603516 A 3,3 0 0 1 11,8 3,3 0 0 1 10.832031,8.710938 l 0.822266,0.822265 A 4,4 0 0 0 12,8 4,4 0 0 0 10.128906,4.615234 Z"
       opacity="0.35"
       id="path15"
       style="fill:#87cdde" />
    <path
       d="m 9.945312,2.332031 -0.167968,1 A 5,5 0 0 1 13,8 5,5 0 0 1 12.392578,10.271484 l 0.730469,0.730469 A 6,6 0 0 0 14,8 6,6 0 0 0 9.945312,2.332031 Z"
       opacity="0.35"
       id="path17"
       style="fill:#87cdde" />
  </g>
</svg>
