<?xml version="1.0" encoding="UTF-8" standalone="no"?>
<svg
   viewBox="0 0 18 18"
   version="1.1"
   id="svg6"
   sodipodi:docname="vol.svg"
   width="18"
   height="18"
   inkscape:version="1.1.2 (0a00cf5339, 2022-02-04)"
   inkscape:export-filename="/home/easifem/.config/awesome/themes/powerarrow-dark/icons-2/vol.png"
   inkscape:export-xdpi="96"
   inkscape:export-ydpi="96"
   xmlns:inkscape="http://www.inkscape.org/namespaces/inkscape"
   xmlns:sodipodi="http://sodipodi.sourceforge.net/DTD/sodipodi-0.dtd"
   xmlns="http://www.w3.org/2000/svg"
   xmlns:svg="http://www.w3.org/2000/svg">
  <sodipodi:namedview
     id="namedview8"
     pagecolor="#505050"
     bordercolor="#eeeeee"
     borderopacity="1"
     inkscape:pageshadow="0"
     inkscape:pageopacity="0"
     inkscape:pagecheckerboard="0"
     showgrid="false"
     inkscape:zoom="9.9105435"
     inkscape:cx="-4.2379109"
     inkscape:cy="24.014828"
     inkscape:window-width="1920"
     inkscape:window-height="1047"
     inkscape:window-x="0"
     inkscape:window-y="17"
     inkscape:window-maximized="1"
     inkscape:current-layer="svg6" />
  <defs
     id="defs3051">
    <style
       type="text/css"
       id="current-color-scheme">
      .ColorScheme-Text {
        color:#eff0f1
      }
      </style>
  </defs>
  <path
     style="fill:#87cdde;fill-opacity:1;stroke:none;stroke-width:1.16669"
     d="M 9.0001552,2 4.3333851,5.7322494 V 12.268061 L 9.0001552,16.00031 H 10.166848 V 2 Z m 4.0215888,1.2891952 -0.526178,1.0500233 a 5.8334626,5.8334335 0 0 1 2.337947,4.6599345 5.8334626,5.8334335 0 0 1 -2.337947,4.655376 l 0.526178,1.057024 A 7.0001552,7.0001202 0 0 0 16,8.9988613 7.0001552,7.0001202 0 0 0 13.021744,3.2884486 M 11.33354,4.963819 v 1.4315318 a 3.5000776,3.5000601 0 0 1 1.166693,2.60455 3.5000776,3.5000601 0 0 1 -1.166693,2.6022712 v 1.433865 A 4.6667701,4.6667468 0 0 0 13.666925,9.0004667 4.6667701,4.6667468 0 0 0 11.33354,4.9648959 M 2,6.6671003 V 11.33387 H 3.1666925 V 6.6671003 Z"
     class="ColorScheme-Text"
     id="path4" />
</svg>
