<?xml version="1.0" encoding="UTF-8" standalone="no"?>
<svg
   viewBox="0 0 18 18"
   version="1.1"
   id="svg13"
   sodipodi:docname="vol_low.svg"
   width="18"
   height="18"
   inkscape:version="1.1.2 (0a00cf5339, 2022-02-04)"
   inkscape:export-filename="/home/easifem/.config/awesome/themes/powerarrow-dark/icons-2/vol_low.png"
   inkscape:export-xdpi="96"
   inkscape:export-ydpi="96"
   xmlns:inkscape="http://www.inkscape.org/namespaces/inkscape"
   xmlns:sodipodi="http://sodipodi.sourceforge.net/DTD/sodipodi-0.dtd"
   xmlns="http://www.w3.org/2000/svg"
   xmlns:svg="http://www.w3.org/2000/svg">
  <defs
     id="defs17" />
  <sodipodi:namedview
     id="namedview15"
     pagecolor="#505050"
     bordercolor="#eeeeee"
     borderopacity="1"
     inkscape:pageshadow="0"
     inkscape:pageopacity="0"
     inkscape:pagecheckerboard="0"
     showgrid="false"
     inkscape:zoom="28.03125"
     inkscape:cx="8.5618729"
     inkscape:cy="12.379041"
     inkscape:window-width="1920"
     inkscape:window-height="1047"
     inkscape:window-x="0"
     inkscape:window-y="17"
     inkscape:window-maximized="1"
     inkscape:current-layer="svg13" />
  <style
     id="current-color-scheme"
     type="text/css">
        .ColorScheme-Text {
            color:#eff0f1;
        }
    </style>
  <g
     class="ColorScheme-Text"
     fill="currentColor"
     id="g11"
     transform="matrix(1.1666667,0,0,1.1666667,-0.33333333,-0.33333333)"
     style="fill:#87cdde">
    <path
       d="M 8,2 4,6 v 4 l 4,4 H 9 V 2 Z"
       id="path3"
       style="fill:#87cdde" />
    <path
       d="m 2,6 v 4 H 3 V 6 Z"
       id="path5"
       style="fill:#87cdde" />
    <path
       d="M 10.128906,4.615234 9.7988281,5.603516 A 3,3 0 0 1 11,8 3,3 0 0 1 9.7988281,10.396484 l 0.3281249,0.984375 A 4,4 0 0 0 12,8 4,4 0 0 0 10.128906,4.615234 Z"
       id="path7"
       style="fill:#87cdde" />
    <path
       d="m 9.9453125,2.332031 -0.1679687,1 A 5,5 0 0 1 13,8 5,5 0 0 1 9.7792969,12.671875 l 0.1660156,0.998047 A 6,6 0 0 0 14,8 6,6 0 0 0 9.9453125,2.332031 Z"
       opacity="0.35"
       id="path9"
       style="fill:#87cdde" />
  </g>
</svg>
